<svg xmlns="http://www.w3.org/2000/svg" version="1.1" xmlns:xlink="http://www.w3.org/1999/xlink" xmlns:svgjs="http://svgjs.dev/svgjs" width="2000" height="1250" viewBox="0 0 2000 1250"><g transform="matrix(1,0,0,1,0,0)"><svg viewBox="0 0 512 320" data-background-color="#dfdad6" preserveAspectRatio="xMidYMid meet" height="1250" width="2000" xmlns="http://www.w3.org/2000/svg" xmlns:xlink="http://www.w3.org/1999/xlink"><g id="tight-bounds" transform="matrix(1,0,0,1,0,0)"><svg viewBox="0 0 512 320" height="320" width="512"><g><svg></svg></g><g><svg viewBox="0 0 512 320" height="320" width="512"><g><path d="M96 160c0-88.366 71.634-160 160-160 88.366 0 160 71.634 160 160 0 88.366-71.634 160-160 160-88.366 0-160-71.634-160-160zM256 318.014c87.269 0 158.014-70.745 158.014-158.014 0-87.269-70.745-158.014-158.014-158.014-87.269 0-158.014 70.745-158.014 158.014 0 87.269 70.745 158.014 158.014 158.014z" fill="#ffffff" fill-rule="nonzero" stroke="none" stroke-width="1" stroke-linecap="butt" stroke-linejoin="miter" stroke-miterlimit="10" stroke-dasharray="" stroke-dashoffset="0" font-family="none" font-weight="none" font-size="none" text-anchor="none" style="mix-blend-mode: normal" data-fill-palette-color="tertiary"></path></g><g transform="matrix(1,0,0,1,116,20)"><svg viewBox="0 0 280 280" height="280" width="280"><g><svg viewBox="0 0 280 280" height="280" width="280"><g><svg viewBox="0 0 280 280" height="280" width="280"><g id="textblocktransform"><svg viewBox="0 0 280 280" height="280" width="280" id="textblock"><g><svg viewBox="0 0 280 280" height="280" width="280"><g transform="matrix(1,0,0,1,74.00336708925556,80.3097120118378)"><svg viewBox="0 0 131.99326582148888 119.3805759763244" height="119.3805759763244" width="131.99326582148888"><g id="icon-0"><svg xmlns="http://www.w3.org/2000/svg" xmlns:xlink="http://www.w3.org/1999/xlink" version="1.1" x="0" y="0" viewBox="5 9.3 90 81.4" enable-background="new 0 0 100 100" xml:space="preserve" height="119.3805759763244" width="131.99326582148888" class="icon-jxe-0" data-fill-palette-color="accent" id="jxe-0"><g fill="#556f7a" data-fill-palette-color="accent"><path d="M50 35.5C42.8 35.5 36.9 29.6 36.9 22.4S42.8 9.3 50 9.3 63.1 15.2 63.1 22.4 57.2 35.5 50 35.5M50 15.1C46 15.1 42.8 18.3 42.8 22.3S46 29.5 50 29.5 57.2 26.3 57.2 22.3C57.2 18.4 54 15.1 50 15.1" fill="#ffffff" data-fill-palette-color="accent"></path></g><g fill="#556f7a" data-fill-palette-color="accent"><g fill="#556f7a" data-fill-palette-color="accent"><path d="M18.1 90.7C10.9 90.7 5 84.8 5 77.6S10.9 64.5 18.1 64.5 31.2 70.4 31.2 77.6 25.3 90.7 18.1 90.7M18.1 70.4C14.1 70.4 10.9 73.6 10.9 77.6S14.1 84.8 18.1 84.8 25.3 81.6 25.3 77.6 22.1 70.4 18.1 70.4" fill="#ffffff" data-fill-palette-color="accent"></path></g><g fill="#556f7a" data-fill-palette-color="accent"><path d="M81.9 90.7C74.7 90.7 68.8 84.8 68.8 77.6S74.7 64.5 81.9 64.5 95 70.4 95 77.6 89.1 90.7 81.9 90.7M81.9 70.4C77.9 70.4 74.7 73.6 74.7 77.6S77.9 84.8 81.9 84.8 89.1 81.6 89.1 77.6 85.9 70.4 81.9 70.4" fill="#ffffff" data-fill-palette-color="accent"></path></g></g><g fill="#556f7a" data-fill-palette-color="accent"><g fill="#556f7a" data-fill-palette-color="accent"><path d="M34.7 74.7H39.1V80.6H34.7zM43.4 74.7H47.8V80.6H43.4zM52.2 74.7H56.6V80.6H52.2zM60.9 74.7H65.3V80.6H60.9z" fill="#ffffff" data-fill-palette-color="accent"></path></g></g><g fill="#556f7a" data-fill-palette-color="accent"><g fill="#556f7a" data-fill-palette-color="accent"><g fill="#556f7a" data-fill-palette-color="accent"><path d="M70.9 64.7L68.7 60.9 73.8 58 76 61.8zM66.5 57.1L64.3 53.3 69.4 50.4 71.6 54.2zM62.2 49.6L60 45.8 65.1 42.9 67.3 46.7zM57.8 42L55.6 38.2 60.7 35.3 62.9 39.1z" fill="#ffffff" data-fill-palette-color="accent"></path></g></g><g fill="#556f7a" data-fill-palette-color="accent"><g fill="#556f7a" data-fill-palette-color="accent"><path d="M24 61.8L26.2 58 31.3 60.9 29.1 64.7zM28.4 54.2L30.6 50.4 35.7 53.3 33.5 57.1zM32.7 46.6L34.9 42.8 40 45.7 37.8 49.5zM37.1 39.1L39.3 35.3 44.4 38.2 42.2 42z" fill="#ffffff" data-fill-palette-color="accent"></path></g></g></g></svg></g></svg></g><g id="text-0"><path d="M22.502 86.746v0c4.48 1.646 7.139 4.056 7.977 7.231v0c0.777 2.931 0.418 6.433-1.078 10.505v0l-3.393 9.237-0.622-0.229 0.789-2.149-21.622-7.943-0.789 2.149-0.623-0.228 3.709-10.095c1.535-4.179 3.542-7 6.019-8.465 2.476-1.458 5.686-1.463 9.633-0.013zM6.894 97.026l21.622 7.944 0.457-1.245c0.808-2.199 0.607-4.06-0.603-5.58-1.206-1.513-3.64-2.942-7.304-4.288v0l-1.894-0.696c-4.895-1.798-8.189-1.946-9.883-0.443v0c-0.805 0.717-1.508 1.892-2.108 3.526v0z" fill="#ffffff" data-fill-palette-color="primary"></path><path d="M40.604 81.346c-1.559 2.554-3.388 4.069-5.49 4.543-2.092 0.472-4.312-0.008-6.661-1.441-2.349-1.433-3.708-3.247-4.078-5.441-0.371-2.194 0.122-4.403 1.478-6.626v0c2.741-4.492 6.314-5.271 10.721-2.34v0l-5.11 8.375 1.157 0.706c1.943 1.186 3.559 1.834 4.847 1.946 1.292 0.106 2.313-0.455 3.063-1.684v0c1.402-2.297 1.095-4.551-0.921-6.761v0l0.41-0.479c1.193 1.245 1.888 2.599 2.086 4.061 0.195 1.468-0.306 3.181-1.502 5.141zM29.431 77.14l1.457 0.889 1.867-3.06-1.457-0.889c-1.606-0.98-2.758-1.553-3.455-1.72-0.698-0.167-1.218 0.029-1.56 0.589-0.345 0.566-0.288 1.173 0.171 1.822 0.459 0.649 1.451 1.438 2.977 2.369z" fill="#ffffff" data-fill-palette-color="primary"></path><path d="M46.521 72.418l-0.269 0.325-4.801-3.98 0.269-0.325c1.941 0.827 3.55 1.104 4.828 0.833 1.273-0.266 2.399-0.99 3.377-2.17v0c1.508-1.819 1.683-3.209 0.523-4.17v0c-0.5-0.414-1.057-0.503-1.672-0.265v0c-0.978 0.372-2.023 1.014-3.136 1.926v0c-1.333 0.947-2.607 1.608-3.823 1.983v0c-1.455 0.454-2.881 0.103-4.277-1.055-1.391-1.154-2.145-2.505-2.261-4.053-0.12-1.543 0.411-3.029 1.594-4.456v0c0.726-0.876 1.68-1.607 2.862-2.193v0c0.421-0.225 0.706-0.427 0.856-0.608 0.145-0.175 0.209-0.379 0.193-0.61-0.021-0.226-0.127-0.571-0.318-1.033v0l0.243-0.293 4.097 3.396-0.269 0.325c-3.075-1.011-5.403-0.563-6.984 1.344v0c-0.696 0.84-1.069 1.588-1.117 2.244-0.048 0.656 0.152 1.17 0.601 1.541v0c0.268 0.222 0.53 0.331 0.786 0.326 0.257 0.004 0.449-0.002 0.576-0.018 0.132-0.012 0.305-0.064 0.52-0.156 0.21-0.096 0.383-0.178 0.519-0.248 0.132-0.065 0.328-0.18 0.588-0.347 0.251-0.166 0.431-0.295 0.541-0.386v0c1.312-0.964 2.302-1.622 2.968-1.974 0.662-0.347 1.356-0.628 2.082-0.844v0c1.496-0.42 2.997-0.007 4.502 1.241 1.51 1.252 2.282 2.649 2.317 4.191 0.039 1.537-0.585 3.081-1.871 4.632v0c-0.919 1.108-2.068 1.964-3.447 2.568v0c-0.324 0.097-0.537 0.207-0.639 0.331v0c-0.325 0.392-0.311 1.051 0.042 1.978z" fill="#ffffff" data-fill-palette-color="primary"></path><path d="M46.888 43.369c-0.9 0.841-1.753 1.213-2.559 1.115-0.811-0.103-1.532-0.492-2.163-1.167-0.636-0.68-0.951-1.434-0.947-2.263 0.004-0.829 0.432-1.641 1.282-2.436 0.846-0.791 1.674-1.194 2.485-1.21 0.815-0.011 1.565 0.351 2.251 1.085 0.69 0.738 1.029 1.526 1.015 2.364-0.009 0.833-0.463 1.671-1.364 2.512zM45.124 49.171l-0.425-0.455 6.226-5.823 10.884 11.64 1.423-1.33 0.425 0.454-7.547 7.057-0.425-0.454 1.394-1.303-10.459-11.185z" fill="#ffffff" data-fill-palette-color="primary"></path><path d="M65.926 29.427v0l0.456-1.045c-0.297-0.667-0.73-0.8-1.3-0.4v0c-0.816 0.574-0.783 1.488 0.099 2.742v0c0.347 0.493 0.813 1.016 1.399 1.57v0c2.123-0.053 3.717 0.676 4.78 2.186 1.059 1.506 1.361 3.045 0.904 4.619-0.455 1.564-1.575 2.974-3.359 4.23v0c-0.739 0.52-1.56 0.987-2.464 1.401v0c-0.459 1.117-0.595 1.806-0.411 2.069 0.189 0.268 0.888-0.023 2.098-0.874v0l2.908-2.045c4.303-3.027 7.541-2.997 9.713 0.09v0c1.175 1.67 1.458 3.451 0.85 5.345-0.612 1.887-2.295 3.8-5.049 5.737v0c-4.687 3.297-7.743 3.933-9.167 1.907v0c-0.774-1.101-0.579-2.376 0.586-3.826v0l2.252-0.43c0.232 0.655 0.521 1.229 0.867 1.723v0c1.148 1.632 2.937 1.592 5.368-0.118v0c1.478-1.04 2.425-2.115 2.839-3.225 0.405-1.111 0.32-2.075-0.253-2.891-0.574-0.816-1.198-1.191-1.873-1.126-0.674 0.065-1.734 0.606-3.18 1.623v0l-2.759 1.942c-1.539 1.082-2.82 1.599-3.845 1.55-1.021-0.043-1.795-0.44-2.322-1.19-0.528-0.75-0.733-1.543-0.617-2.377 0.122-0.839 0.531-2.055 1.226-3.65v0c-2.64 0.924-4.754 0.258-6.34-1.997v0c-1.001-1.424-1.298-2.933-0.891-4.53 0.411-1.591 1.641-3.107 3.688-4.547v0c1.237-0.871 2.457-1.377 3.659-1.518v0c-0.473-0.428-0.856-0.851-1.149-1.267v0c-0.747-1.062-1.004-2.032-0.769-2.908 0.234-0.877 0.702-1.562 1.403-2.055 0.706-0.497 1.404-0.709 2.093-0.638 0.689 0.072 1.259 0.428 1.709 1.069 0.455 0.646 0.619 1.246 0.494 1.801-0.116 0.556-0.418 1.006-0.905 1.349-0.482 0.339-0.969 0.49-1.463 0.452-0.493-0.038-0.918-0.287-1.275-0.748zM63.642 38.989v0l1.08 1.536c0.897 1.276 1.613 2.066 2.146 2.37 0.539 0.3 1.033 0.293 1.482-0.023 0.443-0.312 0.611-0.761 0.501-1.347-0.119-0.588-0.665-1.574-1.64-2.96v0l-0.982-1.396c-1.04-1.478-1.819-2.383-2.339-2.713-0.514-0.334-0.995-0.344-1.443-0.028-0.443 0.312-0.609 0.793-0.496 1.442 0.114 0.64 0.678 1.68 1.691 3.119z" fill="#ffffff" data-fill-palette-color="primary"></path><path d="M73.936 27.154l-0.268-0.562 7.574-3.598 1.37 2.884c-0.124-1.119 0.022-2.138 0.439-3.055 0.411-0.914 1.317-1.704 2.72-2.37v0c3.247-1.543 5.702-0.564 7.365 2.937v0l4.495 9.46 1.759-0.836 0.267 0.562-8.888 4.223-0.267-0.562 1.288-0.612-4.857-10.222c-0.598-1.258-1.067-2.028-1.408-2.31-0.345-0.288-0.738-0.328-1.179-0.118v0c-0.665 0.316-1.045 1.038-1.14 2.165-0.097 1.121 0.153 2.31 0.75 3.568v0l4.124 8.679 1.352-0.642 0.267 0.562-8.925 4.241-0.267-0.563 1.723-0.818-6.571-13.832z" fill="#ffffff" data-fill-palette-color="primary"></path><path d="M95.06 9.354l-0.203-0.746 17.461-4.747 2.228 6.897-0.6 0.163c-1.484-2.191-2.887-3.575-4.209-4.152-1.322-0.577-3.059-0.573-5.21 0.011v0l-0.94 0.256 2.966 10.91 1.511-0.41c1.072-0.291 1.86-0.929 2.363-1.912 0.505-0.977 0.707-2.183 0.608-3.62v0l0.504-0.137 2.702 9.941-0.571 0.156c-0.818-1.581-1.645-2.643-2.479-3.187-0.828-0.545-1.791-0.668-2.89-0.369v0l-1.511 0.411 2.784 10.242 4.167-1.133 0.2 0.736-12.694 3.451-0.2-0.736 1.977-0.538-5.987-22.025z" fill="#ffffff" data-fill-palette-color="primary"></path><path d="M118.77 1.603l-0.072-0.618 8.468-0.985 2.943 25.304 1.935-0.225 0.071 0.619-10.263 1.193-0.072-0.618 1.895-0.22-2.871-24.686z" fill="#ffffff" data-fill-palette-color="primary"></path><path d="M154.084 25.557l-0.018 0.622-7.929-0.22-0.311-2.55c-0.401 0.92-0.972 1.617-1.716 2.092-0.743 0.482-1.834 0.702-3.273 0.663v0c-3.593-0.1-5.336-2.087-5.229-5.962v0l0.291-10.469-1.947-0.054 0.017-0.622 8.411 0.233-0.331 11.925c-0.039 1.392 0.036 2.311 0.225 2.759 0.182 0.447 0.57 0.679 1.166 0.695 0.589 0.016 1.124-0.33 1.606-1.04 0.488-0.703 0.75-1.694 0.786-2.972v0l0.295-10.64-1.606-0.044 0.017-0.623 8.071 0.224-0.442 15.93z" fill="#ffffff" data-fill-palette-color="primary"></path><path d="M167.644 12.721l2.168 6.272 5.213-4.677-2.454-0.531 0.132-0.608 5.064 1.095-0.132 0.608-1.766-0.382-5.77 5.307 3.663 9.905 1.767 0.381-0.131 0.609-11.366-2.457 0.132-0.608 2.414 0.522-2.416-6.933-5.2 5.287 2.247 0.485-0.131 0.609-5.339-1.154 0.131-0.609 2.248 0.486 5.788-5.868-3.407-9.284-1.973-0.426 0.132-0.609 11.493 2.484-0.132 0.609z" fill="#ffffff" data-fill-palette-color="primary"></path><path d="M194.122 38.243v0c1.042 0.505 2.104 0.669 3.186 0.493 1.073-0.172 1.885-0.828 2.436-1.967 0.551-1.139 0.542-2.218-0.028-3.237-0.573-1.029-1.55-2.152-2.931-3.371-1.378-1.225-2.348-2.178-2.911-2.86-0.56-0.687-1.031-1.458-1.413-2.312v0c-0.77-1.712-0.605-3.706 0.497-5.984v0c0.898-1.856 2.334-3.132 4.308-3.828 1.973-0.696 4.107-0.488 6.403 0.623v0c1.109 0.537 2.184 1.258 3.225 2.163 1.048 0.909 1.716 1.433 2.005 1.573 0.295 0.143 0.659 0.059 1.093-0.252v0l0.343 0.167-2.845 6.431-0.497-0.24c-0.128-2.301-0.475-4.265-1.041-5.892-0.566-1.627-1.49-2.752-2.774-3.373-1.283-0.621-2.425-0.806-3.425-0.554-0.991 0.249-1.727 0.871-2.208 1.865-0.481 0.994-0.428 1.961 0.158 2.9 0.587 0.939 1.416 1.875 2.489 2.81 1.069 0.926 1.765 1.546 2.089 1.86 0.324 0.313 0.723 0.718 1.197 1.215 0.465 0.5 0.824 0.956 1.078 1.369 0.245 0.416 0.483 0.907 0.715 1.473 0.226 0.563 0.351 1.118 0.376 1.666v0c0.073 1.277-0.223 2.603-0.888 3.977v0c-1.094 2.26-2.677 3.732-4.748 4.417-2.072 0.685-4.256 0.472-6.552-0.639v0c-1.187-0.575-2.473-1.39-3.858-2.447-1.385-1.057-2.162-1.626-2.33-1.708v0c-0.289-0.14-0.721 0.038-1.296 0.533v0l-0.442-0.214 3.301-7.606 0.534 0.259c0.038 2.257 0.441 4.412 1.21 6.464 0.778 2.05 1.959 3.458 3.544 4.226z" fill="#ffffff" data-fill-palette-color="primary"></path><path d="M207.797 40.645v0l6.341-8.933-1.563-1.11 0.36-0.508 1.564 1.11 2.604-3.668 6.197 2.442-3.528 4.97 3.692 2.622-0.36 0.507-3.693-2.621-6.789 9.563c-0.632 0.89-1.005 1.606-1.119 2.149-0.114 0.543 0.112 1.016 0.68 1.418 0.568 0.403 1.266 0.472 2.095 0.207 0.829-0.265 1.657-0.843 2.486-1.733v0l0.442 0.4c-1.074 1.2-2.223 1.94-3.448 2.22-1.229 0.285-2.629-0.13-4.201-1.246-1.567-1.112-2.545-2.279-2.934-3.499-0.388-1.211 0.003-2.641 1.174-4.29z" fill="#ffffff" data-fill-palette-color="primary"></path><path d="M230.353 65.946l-0.434 0.447-5.691-5.526 1.496-2.088c-0.917 0.407-1.81 0.533-2.679 0.38-0.873-0.148-1.826-0.723-2.859-1.725v0c-2.579-2.504-2.519-5.146 0.181-7.928v0l7.295-7.515-1.398-1.356 0.434-0.447 6.037 5.861-8.309 8.559c-0.97 0.999-1.537 1.727-1.7 2.184-0.168 0.452-0.039 0.886 0.388 1.301 0.423 0.41 1.052 0.517 1.887 0.32 0.835-0.188 1.698-0.74 2.589-1.657v0l7.413-7.637-1.152-1.119 0.433-0.447 5.793 5.623-11.1 11.434z" fill="#ffffff" data-fill-palette-color="primary"></path><path d="M240.82 69.118c-1.982 1.418-3.223 2.461-3.723 3.132-0.505 0.674-0.558 1.292-0.156 1.853 0.397 0.555 0.985 0.859 1.763 0.912 0.788 0.054 1.661-0.262 2.619-0.948v0l6.174-4.416c0.811-0.58 1.385-1.234 1.722-1.959 0.337-0.726 0.283-1.4-0.161-2.021-0.448-0.626-1.168-0.753-2.161-0.38-0.991 0.363-2.524 1.287-4.599 2.77v0zM242.231 83.467l-4.492-6.281 1.762-1.73c-1.973 0.44-3.661-0.32-5.062-2.28v0c-1.161-1.623-1.477-3.302-0.949-5.037 0.528-1.736 1.952-3.433 4.272-5.092v0c4.699-3.361 8.384-3.174 11.055 0.562v0c1.188 1.661 1.508 3.086 0.96 4.276v0l8.355-5.976-1.232-1.723 0.506-0.362 5.059 7.073-20.721 14.819 0.993 1.389z" fill="#ffffff" data-fill-palette-color="primary"></path><path d="M262.358 81.104c-0.564-1.095-0.689-2.017-0.375-2.766 0.32-0.752 0.891-1.34 1.713-1.763 0.827-0.426 1.639-0.524 2.435-0.294 0.796 0.23 1.461 0.863 1.994 1.898 0.53 1.03 0.692 1.936 0.486 2.72-0.212 0.787-0.765 1.41-1.657 1.87-0.899 0.463-1.749 0.573-2.551 0.332-0.799-0.236-1.481-0.901-2.045-1.997zM257.257 77.824l0.554-0.285 3.903 7.579-14.167 7.296 0.892 1.732-0.554 0.285-4.731-9.186 0.554-0.285 0.873 1.696 13.614-7.011z" fill="#ffffff" data-fill-palette-color="primary"></path><path d="M258.871 104.457v0l2.781-0.99c2.119-0.754 3.627-1.419 4.524-1.993 0.888-0.579 1.184-1.285 0.887-2.117v0c-0.171-0.479-0.447-0.818-0.83-1.016-0.374-0.194-0.901-0.244-1.578-0.152v0c-1.053 0.155-2.586 0.59-4.598 1.306v0l-2.554 0.909c-2.384 0.848-3.791 1.427-4.221 1.736-0.434 0.318-0.775 0.606-1.025 0.866v0c-0.438 0.426-0.533 0.989-0.283 1.689v0c0.303 0.851 0.994 1.234 2.071 1.149v0c0.77-0.054 2.378-0.516 4.825-1.387zM251.354 104.84c-0.972-2.731-1.007-5.045-0.105-6.943 0.902-1.898 2.658-3.312 5.27-4.242 2.611-0.929 4.89-0.895 6.836 0.104 1.938 0.994 3.39 2.847 4.356 5.559 0.965 2.712 1.035 4.964 0.209 6.758-0.826 1.793-2.572 3.164-5.24 4.113v0c-5.575 1.984-9.35 0.201-11.326-5.349z" fill="#ffffff" data-fill-palette-color="primary"></path><path d="M3.873 144.45c0-5.506 4.463-9.969 9.969-9.969 5.506 0 9.969 4.463 9.969 9.969 0 5.506-4.463 9.969-9.969 9.969-5.506 0-9.969-4.463-9.969-9.969z" fill="#ffffff" data-fill-palette-color="primary"></path><path d="M256.92 144.45c0-5.506 4.463-9.969 9.969-9.969 5.506 0 9.969 4.463 9.97 9.969 0 5.506-4.463 9.969-9.97 9.969-5.506 0-9.969-4.463-9.969-9.969z" fill="#ffffff" data-fill-palette-color="primary"></path></g><g id="text-1"><path d="M30.594 199.182v0c-4.48 1.646-8.067 1.53-10.761-0.347v0c-2.49-1.731-4.483-4.633-5.979-8.705v0l-3.393-9.237 0.622-0.228 0.789 2.149 21.622-7.943-0.789-2.149 0.622-0.229 3.708 10.095c1.535 4.179 1.832 7.628 0.892 10.348-0.943 2.714-3.387 4.796-7.333 6.246zM35.835 181.242l-21.622 7.944 0.457 1.244c0.808 2.199 2.165 3.487 4.072 3.863 1.898 0.372 4.679-0.114 8.343-1.46v0l1.894-0.696c4.895-1.798 7.501-3.818 7.819-6.06v0c0.15-1.068-0.075-2.418-0.676-4.052v0z" fill="#ffffff" data-fill-palette-color="secondary"></path><path d="M25.865 216.548c-1.559-2.554-2.068-4.874-1.529-6.96 0.537-2.076 1.979-3.831 4.328-5.264 2.349-1.433 4.583-1.813 6.704-1.138 2.121 0.674 3.86 2.123 5.216 4.345v0c2.741 4.492 1.8 8.026-2.823 10.604v0l-5.11-8.375-1.157 0.707c-1.943 1.186-3.259 2.326-3.947 3.42-0.685 1.1-0.653 2.265 0.096 3.493v0c1.402 2.297 3.546 3.055 6.434 2.274v0l0.238 0.584c-1.653 0.491-3.175 0.49-4.565-0.003-1.394-0.498-2.689-1.727-3.885-3.687zM34.716 208.536l-1.458 0.889 1.868 3.06 1.457-0.889c1.606-0.98 2.643-1.742 3.11-2.286 0.468-0.544 0.531-1.096 0.189-1.656-0.345-0.566-0.911-0.793-1.698-0.682-0.787 0.111-1.943 0.633-3.468 1.564z" fill="#ffffff" data-fill-palette-color="secondary"></path><path d="M33.229 227.503l-0.269-0.325 4.8-3.98 0.27 0.325c-1.172 1.754-1.743 3.284-1.713 4.589 0.026 1.3 0.528 2.541 1.507 3.721v0c1.508 1.819 2.842 2.248 4.001 1.286v0c0.5-0.414 0.69-0.946 0.57-1.594v0c-0.184-1.03-0.622-2.176-1.312-3.438v0c-0.684-1.485-1.097-2.86-1.24-4.124v0c-0.177-1.514 0.433-2.85 1.829-4.008 1.391-1.154 2.859-1.644 4.402-1.472 1.539 0.168 2.9 0.965 4.083 2.393v0c0.726 0.876 1.268 1.949 1.625 3.218v0c0.143 0.455 0.289 0.773 0.439 0.954 0.145 0.175 0.333 0.276 0.563 0.302 0.226 0.021 0.584-0.019 1.074-0.121v0l0.244 0.294-4.097 3.397-0.269-0.325c1.563-2.835 1.554-5.206-0.028-7.112v0c-0.696-0.84-1.362-1.344-1.998-1.513-0.636-0.169-1.177-0.067-1.625 0.304v0c-0.268 0.222-0.423 0.46-0.466 0.713-0.052 0.252-0.082 0.442-0.089 0.569-0.012 0.132 0.007 0.312 0.056 0.54 0.055 0.224 0.104 0.409 0.148 0.556 0.039 0.142 0.117 0.356 0.233 0.642 0.117 0.277 0.21 0.478 0.278 0.604v0c0.704 1.468 1.168 2.562 1.391 3.282 0.218 0.715 0.366 1.449 0.443 2.202v0c0.136 1.548-0.549 2.946-2.053 4.194-1.51 1.252-3.026 1.752-4.548 1.5-1.517-0.246-2.919-1.145-4.205-2.696v0c-0.919-1.108-1.547-2.396-1.885-3.863v0c-0.035-0.336-0.104-0.566-0.207-0.689v0c-0.325-0.392-0.975-0.5-1.952-0.325z" fill="#ffffff" data-fill-palette-color="secondary"></path><path d="M61.486 229.92c-0.9-0.841-1.328-1.668-1.284-2.479 0.048-0.816 0.388-1.562 1.019-2.236 0.636-0.68 1.367-1.045 2.194-1.097 0.827-0.051 1.666 0.321 2.517 1.116 0.846 0.791 1.304 1.59 1.374 2.398 0.065 0.812-0.245 1.585-0.931 2.319-0.69 0.738-1.454 1.129-2.291 1.171-0.832 0.047-1.698-0.35-2.598-1.192zM55.579 228.548l0.425-0.454 6.227 5.822-10.884 11.64 1.423 1.331-0.425 0.454-7.547-7.057 0.425-0.454 1.394 1.303 10.458-11.185z" fill="#ffffff" data-fill-palette-color="secondary"></path><path d="M77.542 242.962v0l1.138 0.076c0.527-0.505 0.506-0.958-0.064-1.358v0c-0.816-0.574-1.665-0.234-2.547 1.02v0c-0.347 0.493-0.682 1.108-1.004 1.847v0c0.768 1.98 0.62 3.726-0.444 5.237-1.059 1.506-2.406 2.309-4.041 2.412-1.626 0.1-3.331-0.477-5.116-1.733v0c-0.739-0.52-1.456-1.135-2.152-1.846v0c-1.206-0.054-1.901 0.05-2.086 0.313-0.189 0.268 0.322 0.828 1.532 1.679v0l2.907 2.046c4.303 3.027 5.369 6.085 3.197 9.173v0c-1.175 1.67-2.756 2.538-4.743 2.605-1.983 0.062-4.352-0.876-7.106-2.813v0c-4.687-3.297-6.317-5.959-4.892-7.985v0c0.774-1.101 2.041-1.347 3.799-0.74v0l1.165 1.974c-0.538 0.44-0.981 0.906-1.328 1.398v0c-1.148 1.632-0.506 3.302 1.925 5.013v0c1.478 1.04 2.81 1.567 3.994 1.582 1.183 0.006 2.061-0.4 2.636-1.215 0.574-0.816 0.716-1.53 0.427-2.143-0.289-0.613-1.157-1.427-2.602-2.444v0l-2.76-1.942c-1.539-1.082-2.458-2.114-2.758-3.094-0.304-0.975-0.193-1.838 0.335-2.588 0.528-0.75 1.204-1.211 2.029-1.384 0.831-0.169 2.114-0.195 3.85-0.079v0c-1.762-2.173-1.849-4.387-0.263-6.643v0c1.001-1.424 2.322-2.213 3.962-2.368 1.636-0.15 3.478 0.495 5.526 1.935v0c1.237 0.871 2.126 1.847 2.665 2.931v0c0.243-0.59 0.511-1.093 0.804-1.51v0c0.747-1.062 1.573-1.631 2.478-1.707 0.905-0.076 1.707 0.133 2.408 0.626 0.706 0.497 1.142 1.082 1.307 1.755 0.165 0.673 0.022 1.329-0.428 1.97-0.455 0.646-0.964 1.004-1.529 1.073-0.563 0.079-1.088-0.053-1.575-0.396-0.482-0.339-0.788-0.747-0.919-1.224-0.131-0.477-0.04-0.961 0.273-1.453zM67.77 244.043v0l-1.08 1.536c-0.897 1.276-1.399 2.216-1.506 2.821-0.101 0.609 0.073 1.071 0.523 1.386 0.443 0.312 0.923 0.318 1.437 0.017 0.513-0.31 1.257-1.158 2.231-2.544v0l0.982-1.396c1.04-1.478 1.628-2.518 1.764-3.117 0.141-0.596-0.013-1.052-0.462-1.369-0.443-0.312-0.952-0.305-1.524 0.021-0.563 0.324-1.352 1.206-2.365 2.645z" fill="#ffffff" data-fill-palette-color="secondary"></path><path d="M80.505 247.92l0.267-0.563 7.573 3.598-1.37 2.885c0.789-0.803 1.671-1.333 2.645-1.59 0.968-0.259 2.153-0.055 3.556 0.612v0c3.247 1.543 4.039 4.064 2.376 7.565v0l-4.495 9.46 1.76 0.836-0.268 0.562-8.888-4.223 0.267-0.562 1.288 0.612 4.857-10.222c0.598-1.258 0.898-2.108 0.901-2.551 0.006-0.449-0.212-0.779-0.654-0.989v0c-0.665-0.316-1.464-0.155-2.397 0.484-0.93 0.633-1.695 1.578-2.292 2.835v0l-4.124 8.68 1.351 0.642-0.267 0.563-8.925-4.241 0.268-0.562 1.723 0.819 6.571-13.832z" fill="#ffffff" data-fill-palette-color="secondary"></path><path d="M103.09 250.008l0.203-0.746 17.46 4.746-1.569 7.076-0.601-0.163c-0.17-2.641-0.679-4.545-1.527-5.712-0.848-1.167-2.348-2.043-4.499-2.628v0l-0.94-0.255-2.966 10.91 1.511 0.411c1.072 0.291 2.074 0.141 3.006-0.452 0.93-0.587 1.715-1.525 2.357-2.814v0l0.504 0.137-2.703 9.941-0.571-0.155c0.095-1.778-0.08-3.112-0.525-4.003-0.438-0.889-1.206-1.483-2.305-1.782v0l-1.511-0.411-2.784 10.242 4.166 1.133-0.2 0.736-12.694-3.45 0.201-0.737 1.976 0.538 5.988-22.025z" fill="#ffffff" data-fill-palette-color="secondary"></path><path d="M122.742 253.141l0.072-0.618 8.468 0.984-2.943 25.305 1.935 0.225-0.072 0.618-10.263-1.193 0.072-0.619 1.895 0.221 2.871-24.686z" fill="#ffffff" data-fill-palette-color="secondary"></path><path d="M154.509 278.656l0.017 0.622-7.93 0.22-0.452-2.529c-0.349 0.941-0.881 1.669-1.597 2.184-0.715 0.522-1.793 0.803-3.231 0.843v0c-3.593 0.1-5.444-1.788-5.551-5.662v0l-0.291-10.469-1.947 0.054-0.017-0.622 8.411-0.234 0.331 11.925c0.039 1.392 0.164 2.306 0.377 2.742 0.206 0.436 0.607 0.646 1.203 0.629 0.589-0.016 1.104-0.392 1.546-1.127 0.449-0.729 0.655-1.733 0.62-3.011v0l-0.296-10.64-1.606 0.045-0.017-0.623 8.07-0.224 0.442 15.93z" fill="#ffffff" data-fill-palette-color="secondary"></path><path d="M164.41 261.217l4.565 4.818 2.816-6.413-2.454 0.531-0.131-0.609 5.064-1.095 0.131 0.609-1.766 0.382-3.063 7.216 7.427 7.507 1.766-0.382 0.132 0.609-11.366 2.456-0.131-0.608 2.414-0.522-5.063-5.316-2.553 6.962 2.248-0.486 0.131 0.609-5.339 1.154-0.132-0.609 2.248-0.485 2.848-7.735-6.937-7.048-1.973 0.426-0.131-0.608 11.493-2.484 0.131 0.608z" fill="#ffffff" data-fill-palette-color="secondary"></path><path d="M201.006 264.879v0c1.042-0.505 1.83-1.235 2.363-2.192 0.53-0.948 0.52-1.992-0.031-3.131-0.551-1.139-1.403-1.801-2.557-1.986-1.162-0.189-2.65-0.119-4.462 0.207-1.815 0.321-3.165 0.491-4.049 0.51-0.886 0.013-1.783-0.096-2.69-0.327v0c-1.82-0.458-3.282-1.825-4.385-4.103v0c-0.898-1.856-1.008-3.773-0.33-5.752 0.678-1.979 2.165-3.525 4.461-4.636v0c1.109-0.537 2.341-0.932 3.698-1.188 1.363-0.258 2.188-0.457 2.477-0.597 0.295-0.143 0.455-0.481 0.481-1.013v0l0.343-0.166 3.279 6.222-0.497 0.24c-1.884-1.327-3.64-2.273-5.267-2.838-1.627-0.566-3.083-0.538-4.367 0.083-1.283 0.621-2.136 1.402-2.558 2.343-0.419 0.932-0.388 1.895 0.093 2.889 0.481 0.994 1.272 1.552 2.372 1.674 1.1 0.122 2.35 0.053 3.748-0.208 1.39-0.264 2.308-0.425 2.755-0.486 0.447-0.06 1.012-0.122 1.696-0.184 0.68-0.054 1.261-0.053 1.742 0.004 0.478 0.066 1.011 0.184 1.599 0.353 0.582 0.172 1.095 0.418 1.54 0.738v0c1.047 0.735 1.904 1.789 2.568 3.163v0.001c1.094 2.26 1.267 4.414 0.519 6.464-0.748 2.05-2.27 3.631-4.565 4.742v0c-1.187 0.575-2.625 1.077-4.313 1.508-1.688 0.43-2.617 0.686-2.786 0.768v0c-0.289 0.14-0.418 0.589-0.385 1.347v0l-0.443 0.214-3.916-7.308 0.533-0.258c1.794 1.37 3.734 2.391 5.821 3.062 2.09 0.662 3.928 0.609 5.513-0.159z" fill="#ffffff" data-fill-palette-color="secondary"></path><path d="M211.618 253.639v0l-6.341-8.933-1.564 1.11-0.361-0.507 1.564-1.11-2.604-3.669 4.349-5.045 3.528 4.97 3.693-2.622 0.36 0.508-3.692 2.622 6.789 9.563c0.632 0.89 1.185 1.478 1.659 1.765 0.475 0.287 0.996 0.229 1.564-0.174 0.568-0.403 0.863-1.04 0.886-1.909 0.023-0.87-0.249-1.843-0.816-2.919v0l0.524-0.285c0.779 1.409 1.098 2.738 0.958 3.986-0.136 1.254-0.99 2.439-2.562 3.556-1.567 1.112-2.99 1.651-4.271 1.616-1.271-0.033-2.492-0.874-3.663-2.523z" fill="#ffffff" data-fill-palette-color="secondary"></path><path d="M241.023 233.945l0.433 0.447-5.691 5.525-2.044-1.557c0.379 0.929 0.479 1.825 0.301 2.689-0.174 0.868-0.777 1.804-1.809 2.807v0c-2.579 2.504-5.219 2.365-7.919-0.416v0l-7.295-7.515-1.398 1.357-0.433-0.446 6.037-5.862 8.309 8.56c0.97 0.999 1.681 1.587 2.133 1.764 0.447 0.182 0.884 0.065 1.312-0.35 0.423-0.41 0.548-1.036 0.375-1.876-0.163-0.84-0.689-1.719-1.58-2.637v0l-7.413-7.637-1.153 1.119-0.434-0.446 5.793-5.624 11.1 11.434z" fill="#ffffff" data-fill-palette-color="secondary"></path><path d="M242.58 221.041c1.982 1.418 3.371 2.255 4.167 2.511 0.801 0.26 1.403 0.11 1.804-0.451 0.397-0.555 0.495-1.21 0.293-1.963-0.203-0.763-0.784-1.487-1.743-2.172v0l-6.175-4.416c-0.811-0.58-1.615-0.912-2.411-0.996-0.796-0.084-1.416 0.185-1.86 0.805-0.448 0.626-0.335 1.349 0.339 2.168 0.664 0.821 2.033 1.973 4.108 3.457v0zM255.703 215.069l-4.492 6.281-2.207-1.109c1.054 1.725 0.88 3.568-0.522 5.528v0c-1.161 1.623-2.647 2.464-4.46 2.525-1.813 0.061-3.88-0.738-6.199-2.397v0c-4.699-3.361-5.713-6.909-3.042-10.644v0c1.188-1.661 2.433-2.424 3.737-2.29v0l-8.355-5.976-1.233 1.724-0.506-0.362 5.059-7.073 20.72 14.819 0.993-1.388z" fill="#ffffff" data-fill-palette-color="secondary"></path><path d="M243.356 198.011c-0.564 1.095-1.242 1.732-2.034 1.911-0.798 0.176-1.608 0.053-2.43-0.37-0.827-0.426-1.378-1.03-1.654-1.812-0.275-0.782-0.146-1.69 0.388-2.726 0.53-1.03 1.174-1.688 1.932-1.975 0.764-0.284 1.592-0.197 2.485 0.263 0.899 0.463 1.482 1.091 1.751 1.885 0.272 0.788 0.126 1.729-0.438 2.824zM243.648 204.068l-0.554-0.285 3.904-7.579 14.167 7.296 0.892-1.732 0.553 0.285-4.731 9.186-0.553-0.285 0.873-1.696-13.613-7.011z" fill="#ffffff" data-fill-palette-color="secondary"></path><path d="M261.552 185.398v0l-2.781-0.99c-2.119-0.754-3.708-1.192-4.766-1.312-1.054-0.112-1.73 0.248-2.026 1.08v0c-0.171 0.479-0.17 0.917 0.002 1.312 0.168 0.387 0.544 0.758 1.127 1.115v0c0.914 0.546 2.377 1.176 4.39 1.892v0l2.554 0.909c2.384 0.848 3.84 1.288 4.369 1.321 0.537 0.028 0.984 0.02 1.341-0.024v0c0.609-0.053 1.038-0.43 1.286-1.13v0c0.303-0.851 0.01-1.585-0.879-2.2v0c-0.63-0.445-2.169-1.102-4.617-1.973zM267.621 189.849c-0.972 2.731-2.407 4.547-4.305 5.449-1.898 0.902-4.153 0.888-6.764-0.041-2.611-0.929-4.356-2.396-5.235-4.399-0.875-1.995-0.829-4.349 0.136-7.061 0.965-2.712 2.334-4.502 4.107-5.371 1.773-0.868 3.993-0.828 6.661 0.122v0c5.575 1.984 7.375 5.751 5.4 11.301z" fill="#ffffff" data-fill-palette-color="secondary"></path></g></svg></g></svg></g></svg></g></svg></g></svg></g></svg></g><defs></defs></svg><rect width="512" height="320" fill="none" stroke="none" visibility="hidden"></rect></g></svg></g></svg>