<svg xmlns="http://www.w3.org/2000/svg" version="1.1" xmlns:xlink="http://www.w3.org/1999/xlink" xmlns:svgjs="http://svgjs.dev/svgjs" width="128" height="128" viewBox="0 0 128 128"><g transform="matrix(0.8046875,0,0,0.8046875,12.333870967741937,12.333870967741937)"><svg viewBox="0 0 155 155" data-background-color="#000000" preserveAspectRatio="xMidYMid meet" height="128" width="128" xmlns="http://www.w3.org/2000/svg" xmlns:xlink="http://www.w3.org/1999/xlink"><g id="tight-bounds" transform="matrix(1,0,0,1,0.25,0.25)"><svg viewBox="0 0 154.5 154.5" height="154.5" width="154.5"><rect width="154.5" height="154.5" fill="url(#6234b02c-e2cc-4fe2-87c9-9dfc6e33b267)" mask="url(#10790a39-db69-48c5-a078-dfbc33ccbc42)" data-fill-palette-color="tertiary"></rect><g><svg></svg></g><g><svg viewBox="0 0 154.5 154.5" height="154.5" width="154.5"><g transform="matrix(1,0,0,1,47.74637100000001,66.71051325969448)"><svg viewBox="0 0 59.007257999999986 21.07897348061104" height="21.07897348061104" width="59.007257999999986"><g><svg viewBox="0 0 59.007257999999986 21.07897348061104" height="21.07897348061104" width="59.007257999999986"><g><svg viewBox="0 0 59.007257999999986 21.07897348061104" height="21.07897348061104" width="59.007257999999986"><g id="textblocktransform"><svg viewBox="0 0 59.007257999999986 21.07897348061104" height="21.07897348061104" width="59.007257999999986" id="textblock"><g><svg viewBox="0 0 59.007257999999986 21.07897348061104" height="21.07897348061104" width="59.007257999999986"><g transform="matrix(1,0,0,1,0,0)"><svg width="59.007257999999986" viewBox="1.75 -37.5 106.37 38" height="21.07897348061104" data-palette-color="url(#0379c727-75d4-4030-a9c9-bc6e72baecc6)"></svg></g></svg></g></svg></g></svg></g><g></g></svg></g></svg></g><g><path d="M52.156 61.734A29.504 29.504 0 0 1 102.344 61.734L100.443 61.734A27.603 27.603 0 0 0 54.057 61.734L52.156 61.734M52.156 92.766A29.504 29.504 0 0 0 102.344 92.766L100.443 92.766A27.603 27.603 0 0 1 54.057 92.766L52.156 92.766" fill="url(#6234b02c-e2cc-4fe2-87c9-9dfc6e33b267)" stroke="transparent" data-fill-palette-color="tertiary"></path></g></svg></g><defs></defs><mask id="7642aea4-4e22-40f6-a143-9c1c2ebe08cf"><g id="SvgjsG3256"><svg viewBox="0 0 154.5 154.5" height="154.5" width="154.5"><g><svg></svg></g><g><svg viewBox="0 0 154.5 154.5" height="154.5" width="154.5"><g transform="matrix(1,0,0,1,47.74637100000001,66.71051325969448)"><svg viewBox="0 0 59.007257999999986 21.07897348061104" height="21.07897348061104" width="59.007257999999986"><g><svg viewBox="0 0 59.007257999999986 21.07897348061104" height="21.07897348061104" width="59.007257999999986"><g><svg viewBox="0 0 59.007257999999986 21.07897348061104" height="21.07897348061104" width="59.007257999999986"><g id="SvgjsG3255"><svg viewBox="0 0 59.007257999999986 21.07897348061104" height="21.07897348061104" width="59.007257999999986" id="SvgjsSvg3254"><g><svg viewBox="0 0 59.007257999999986 21.07897348061104" height="21.07897348061104" width="59.007257999999986"><g transform="matrix(1,0,0,1,0,0)"><svg width="59.007257999999986" viewBox="1.75 -37.5 106.37 38" height="21.07897348061104" data-palette-color="url(#0379c727-75d4-4030-a9c9-bc6e72baecc6)"><path d="M4.1-34.75L7.95-34.75Q8.53-34.75 8.7-34.5 8.88-34.25 8.85-33.75L8.85-33.75 7.43-3.85Q7.4-3.3 7.14-3.03 6.88-2.75 6.25-2.75L6.25-2.75 2.8-2.75Q2.13-2.75 1.94-2.58 1.75-2.4 1.75-1.7L1.75-1.7 1.75-1Q1.75-0.33 1.95-0.16 2.15 0 2.85 0L2.85 0 15.2 0Q15.88 0 16.19-0.18 16.5-0.35 16.5-1L16.5-1 16.5-1.65Q16.5-2.4 16.29-2.58 16.07-2.75 15.35-2.75L15.35-2.75 12.3-2.75Q11.23-2.75 10.93-3.05 10.63-3.35 10.65-4.38L10.65-4.38 11.78-31.95Q11.83-33.13 11.9-33.56 11.98-34 12.1-34L12.1-34Q12.43-34 12.6-33.39 12.78-32.77 12.9-32 13.03-31.23 13.2-30.7L13.2-30.7 23.35-0.85Q23.55-0.23 23.8 0.14 24.05 0.5 24.95 0.5L24.95 0.5 26.1 0.5Q26.75 0.5 26.95 0.28 27.15 0.05 27.3-0.4L27.3-0.4 37-29.3Q37.25-30.03 37.51-30.99 37.77-31.95 38.05-32.68 38.33-33.4 38.6-33.4L38.6-33.4Q38.73-33.4 38.74-32.63 38.75-31.85 38.74-30.86 38.73-29.88 38.75-29.23L38.75-29.23 39.63-3.8Q39.65-3.2 39.48-2.98 39.3-2.75 38.65-2.75L38.65-2.75 34.75-2.75Q34.02-2.75 33.89-2.51 33.75-2.27 33.75-1.55L33.75-1.55 33.75-0.95Q33.75-0.33 34.06-0.16 34.38 0 34.95 0L34.95 0 49.1 0Q49.73 0 49.86-0.21 50-0.43 50-1.05L50-1.05 50-1.8Q50-2.53 49.89-2.64 49.78-2.75 49.05-2.75L49.05-2.75 45.4-2.75Q44.73-2.75 44.55-2.96 44.38-3.18 44.35-3.8L44.35-3.8 43.15-33.4Q43.13-34.05 43.3-34.4 43.48-34.75 44.18-34.75L44.18-34.75 47.35-34.75Q48.15-34.75 48.33-34.98 48.5-35.2 48.5-36L48.5-36 48.5-36.6Q48.5-37.18 48.33-37.34 48.15-37.5 47.6-37.5L47.6-37.5 37.1-37.5Q36.4-37.5 36.3-37.33 36.2-37.15 36.02-36.65L36.02-36.65 26.4-7.45Q26.2-6.83 26.11-6.55 26.03-6.28 25.85-6.28L25.85-6.28Q25.65-6.28 25.56-6.75 25.48-7.23 25.23-7.95L25.23-7.95 15.83-36.35Q15.7-36.75 15.64-37 15.58-37.25 15.36-37.38 15.15-37.5 14.6-37.5L14.6-37.5 4.3-37.5Q3.75-37.5 3.5-37.38 3.25-37.25 3.25-36.65L3.25-36.65 3.25-35.5Q3.25-35.02 3.43-34.89 3.6-34.75 4.1-34.75L4.1-34.75ZM54.52-34.75L57.9-34.75Q58.67-34.75 58.9-34.61 59.12-34.48 59.12-33.7L59.12-33.7 59.12-4.15Q59.12-3.23 58.91-2.99 58.7-2.75 57.77-2.75L57.77-2.75 54.52-2.75Q54.02-2.75 53.82-2.65 53.62-2.55 53.62-2.05L53.62-2.05 53.62-0.9Q53.62-0.3 53.85-0.15 54.07 0 54.62 0L54.62 0 85.57 0Q86.07 0 86.22-0.16 86.37-0.33 86.37-0.85L86.37-0.85 86.37-12Q86.37-12.5 86.14-12.63 85.9-12.75 85.42-12.75L85.42-12.75 84.47-12.75Q84.15-12.75 84.01-12.6 83.87-12.45 83.87-11.95L83.87-11.95Q83.82-8.35 83.07-6.35 82.32-4.35 80.5-3.55 78.67-2.75 75.37-2.75L75.37-2.75 64.97-2.75Q64.25-2.75 64.06-2.95 63.87-3.15 63.87-3.85L63.87-3.85 63.87-17.3Q63.87-17.98 64.02-18.19 64.17-18.4 64.82-18.4L64.82-18.4 68.12-18.4Q70.12-18.4 71.39-17.73 72.65-17.05 73.3-15.89 73.95-14.73 74.07-13.25L74.07-13.25Q74.12-12.68 74.32-12.54 74.52-12.4 74.75-12.4L74.75-12.4 75.57-12.4Q76.12-12.4 76.25-12.6 76.37-12.8 76.37-13.4L76.37-13.4 76.37-25.4Q76.37-25.83 76.2-25.99 76.02-26.15 75.6-26.15L75.6-26.15 74.77-26.15Q74.4-26.15 74.27-26 74.15-25.85 74.1-25.35L74.1-25.35Q73.92-23.15 72.52-21.78 71.12-20.4 68.12-20.4L68.12-20.4 64.72-20.4Q64.12-20.4 64-20.68 63.87-20.95 63.87-21.5L63.87-21.5 63.87-33.65Q63.87-34.38 64.09-34.56 64.3-34.75 64.97-34.75L64.97-34.75 75.87-34.75Q78.67-34.75 80.27-34.01 81.87-33.27 82.59-31.51 83.3-29.75 83.37-26.7L83.37-26.7Q83.4-26.23 83.51-25.99 83.62-25.75 84.17-25.75L84.17-25.75 85.17-25.75Q85.82-25.75 85.85-25.95 85.87-26.15 85.87-26.75L85.87-26.75 85.87-36.3Q85.87-37.18 85.64-37.34 85.4-37.5 84.52-37.5L84.52-37.5 54.47-37.5Q53.92-37.5 53.77-37.31 53.62-37.13 53.62-36.55L53.62-36.55 53.62-35.8Q53.62-35.23 53.76-34.99 53.9-34.75 54.52-34.75L54.52-34.75ZM102.12-3.85L102.12-33.85Q102.12-34.48 102.3-34.61 102.47-34.75 103.07-34.75L103.07-34.75 107.07-34.75Q107.55-34.75 107.83-34.95 108.12-35.15 108.12-35.8L108.12-35.8 108.12-36.65Q108.12-37.23 107.96-37.36 107.8-37.5 107.22-37.5L107.22-37.5 92.62-37.5Q92.2-37.5 92.03-37.43 91.87-37.35 91.87-36.85L91.87-36.85 91.87-35.5Q91.87-35.1 92.06-34.93 92.25-34.75 92.72-34.75L92.72-34.75 96.62-34.75Q97.2-34.75 97.28-34.58 97.37-34.4 97.37-33.9L97.37-33.9 97.37-4Q97.37-3.15 96.84-2.95 96.32-2.75 95.67-2.75L95.67-2.75 93.02-2.75Q92.32-2.75 92.09-2.6 91.87-2.45 91.87-2.05L91.87-2.05 91.87-0.8Q91.87-0.33 92.11-0.16 92.34 0 92.87 0L92.87 0 107.12 0Q107.65 0 107.88-0.18 108.12-0.35 108.12-0.8L108.12-0.8 108.12-1.95Q108.12-2.3 108.02-2.53 107.92-2.75 107.57-2.75L107.57-2.75 103.07-2.75Q102.52-2.75 102.32-2.99 102.12-3.23 102.12-3.85L102.12-3.85Z" opacity="1" transform="matrix(1,0,0,1,0,0)" fill="white" class="wordmark-text-0" id="SvgjsPath3253"></path></svg></g></svg></g></svg></g></svg></g><g></g></svg></g></svg></g><g><path d="M52.156 61.734A29.504 29.504 0 0 1 102.344 61.734L100.443 61.734A27.603 27.603 0 0 0 54.057 61.734L52.156 61.734M52.156 92.766A29.504 29.504 0 0 0 102.344 92.766L100.443 92.766A27.603 27.603 0 0 1 54.057 92.766L52.156 92.766" fill="black" stroke="transparent"></path></g></svg></g><defs><mask></mask></defs></svg><rect width="154.5" height="154.5" fill="black" stroke="none" visibility="hidden"></rect></g></mask><linearGradient x1="0.054" x2="0.941" y1="0.5" y2="0.5" id="0379c727-75d4-4030-a9c9-bc6e72baecc6"><stop stop-color="#864d25" offset="0"></stop><stop stop-color="#f1c4b3" offset="0.498"></stop><stop stop-color="#864d25" offset="1"></stop></linearGradient><rect width="154.5" height="154.5" fill="url(#0379c727-75d4-4030-a9c9-bc6e72baecc6)" mask="url(#7642aea4-4e22-40f6-a143-9c1c2ebe08cf)" data-fill-palette-color="primary"></rect><mask id="10790a39-db69-48c5-a078-dfbc33ccbc42"><g id="SvgjsG3279"><svg viewBox="0 0 154.5 154.5" height="154.5" width="154.5"><g><svg></svg></g><g><svg viewBox="0 0 154.5 154.5" height="154.5" width="154.5"><g transform="matrix(1,0,0,1,47.74637100000001,66.71051325969448)"><svg viewBox="0 0 59.007257999999986 21.07897348061104" height="21.07897348061104" width="59.007257999999986"><g><svg viewBox="0 0 59.007257999999986 21.07897348061104" height="21.07897348061104" width="59.007257999999986"><g><svg viewBox="0 0 59.007257999999986 21.07897348061104" height="21.07897348061104" width="59.007257999999986"><g id="SvgjsG3278"><svg viewBox="0 0 59.007257999999986 21.07897348061104" height="21.07897348061104" width="59.007257999999986" id="SvgjsSvg3277"><g><svg viewBox="0 0 59.007257999999986 21.07897348061104" height="21.07897348061104" width="59.007257999999986"><g transform="matrix(1,0,0,1,0,0)"><svg width="59.007257999999986" viewBox="1.75 -37.5 106.37 38" height="21.07897348061104" data-palette-color="url(#0379c727-75d4-4030-a9c9-bc6e72baecc6)"></svg></g></svg></g></svg></g></svg></g><g></g></svg></g></svg></g><g><path d="M52.156 61.734A29.504 29.504 0 0 1 102.344 61.734L100.443 61.734A27.603 27.603 0 0 0 54.057 61.734L52.156 61.734M52.156 92.766A29.504 29.504 0 0 0 102.344 92.766L100.443 92.766A27.603 27.603 0 0 1 54.057 92.766L52.156 92.766" fill="white" stroke="transparent"></path></g></svg></g><defs><mask></mask></defs><mask><g id="SvgjsG3276"><svg viewBox="0 0 154.5 154.5" height="154.5" width="154.5"><g><svg></svg></g><g><svg viewBox="0 0 154.5 154.5" height="154.5" width="154.5"><g transform="matrix(1,0,0,1,47.74637100000001,66.71051325969448)"><svg viewBox="0 0 59.007257999999986 21.07897348061104" height="21.07897348061104" width="59.007257999999986"><g><svg viewBox="0 0 59.007257999999986 21.07897348061104" height="21.07897348061104" width="59.007257999999986"><g><svg viewBox="0 0 59.007257999999986 21.07897348061104" height="21.07897348061104" width="59.007257999999986"><g id="SvgjsG3275"><svg viewBox="0 0 59.007257999999986 21.07897348061104" height="21.07897348061104" width="59.007257999999986" id="SvgjsSvg3274"><g><svg viewBox="0 0 59.007257999999986 21.07897348061104" height="21.07897348061104" width="59.007257999999986"><g transform="matrix(1,0,0,1,0,0)"><svg width="59.007257999999986" viewBox="1.75 -37.5 106.37 38" height="21.07897348061104" data-palette-color="url(#0379c727-75d4-4030-a9c9-bc6e72baecc6)"><path d="M4.1-34.75L7.95-34.75Q8.53-34.75 8.7-34.5 8.88-34.25 8.85-33.75L8.85-33.75 7.43-3.85Q7.4-3.3 7.14-3.03 6.88-2.75 6.25-2.75L6.25-2.75 2.8-2.75Q2.13-2.75 1.94-2.58 1.75-2.4 1.75-1.7L1.75-1.7 1.75-1Q1.75-0.33 1.95-0.16 2.15 0 2.85 0L2.85 0 15.2 0Q15.88 0 16.19-0.18 16.5-0.35 16.5-1L16.5-1 16.5-1.65Q16.5-2.4 16.29-2.58 16.07-2.75 15.35-2.75L15.35-2.75 12.3-2.75Q11.23-2.75 10.93-3.05 10.63-3.35 10.65-4.38L10.65-4.38 11.78-31.95Q11.83-33.13 11.9-33.56 11.98-34 12.1-34L12.1-34Q12.43-34 12.6-33.39 12.78-32.77 12.9-32 13.03-31.23 13.2-30.7L13.2-30.7 23.35-0.85Q23.55-0.23 23.8 0.14 24.05 0.5 24.95 0.5L24.95 0.5 26.1 0.5Q26.75 0.5 26.95 0.28 27.15 0.05 27.3-0.4L27.3-0.4 37-29.3Q37.25-30.03 37.51-30.99 37.77-31.95 38.05-32.68 38.33-33.4 38.6-33.4L38.6-33.4Q38.73-33.4 38.74-32.63 38.75-31.85 38.74-30.86 38.73-29.88 38.75-29.23L38.75-29.23 39.63-3.8Q39.65-3.2 39.48-2.98 39.3-2.75 38.65-2.75L38.65-2.75 34.75-2.75Q34.02-2.75 33.89-2.51 33.75-2.27 33.75-1.55L33.75-1.55 33.75-0.95Q33.75-0.33 34.06-0.16 34.38 0 34.95 0L34.95 0 49.1 0Q49.73 0 49.86-0.21 50-0.43 50-1.05L50-1.05 50-1.8Q50-2.53 49.89-2.64 49.78-2.75 49.05-2.75L49.05-2.75 45.4-2.75Q44.73-2.75 44.55-2.96 44.38-3.18 44.35-3.8L44.35-3.8 43.15-33.4Q43.13-34.05 43.3-34.4 43.48-34.75 44.18-34.75L44.18-34.75 47.35-34.75Q48.15-34.75 48.33-34.98 48.5-35.2 48.5-36L48.5-36 48.5-36.6Q48.5-37.18 48.33-37.34 48.15-37.5 47.6-37.5L47.6-37.5 37.1-37.5Q36.4-37.5 36.3-37.33 36.2-37.15 36.02-36.65L36.02-36.65 26.4-7.45Q26.2-6.83 26.11-6.55 26.03-6.28 25.85-6.28L25.85-6.28Q25.65-6.28 25.56-6.75 25.48-7.23 25.23-7.95L25.23-7.95 15.83-36.35Q15.7-36.75 15.64-37 15.58-37.25 15.36-37.38 15.15-37.5 14.6-37.5L14.6-37.5 4.3-37.5Q3.75-37.5 3.5-37.38 3.25-37.25 3.25-36.65L3.25-36.65 3.25-35.5Q3.25-35.02 3.43-34.89 3.6-34.75 4.1-34.75L4.1-34.75ZM54.52-34.75L57.9-34.75Q58.67-34.75 58.9-34.61 59.12-34.48 59.12-33.7L59.12-33.7 59.12-4.15Q59.12-3.23 58.91-2.99 58.7-2.75 57.77-2.75L57.77-2.75 54.52-2.75Q54.02-2.75 53.82-2.65 53.62-2.55 53.62-2.05L53.62-2.05 53.62-0.9Q53.62-0.3 53.85-0.15 54.07 0 54.62 0L54.62 0 85.57 0Q86.07 0 86.22-0.16 86.37-0.33 86.37-0.85L86.37-0.85 86.37-12Q86.37-12.5 86.14-12.63 85.9-12.75 85.42-12.75L85.42-12.75 84.47-12.75Q84.15-12.75 84.01-12.6 83.87-12.45 83.87-11.95L83.87-11.95Q83.82-8.35 83.07-6.35 82.32-4.35 80.5-3.55 78.67-2.75 75.37-2.75L75.37-2.75 64.97-2.75Q64.25-2.75 64.06-2.95 63.87-3.15 63.87-3.85L63.87-3.85 63.87-17.3Q63.87-17.98 64.02-18.19 64.17-18.4 64.82-18.4L64.82-18.4 68.12-18.4Q70.12-18.4 71.39-17.73 72.65-17.05 73.3-15.89 73.95-14.73 74.07-13.25L74.07-13.25Q74.12-12.68 74.32-12.54 74.52-12.4 74.75-12.4L74.75-12.4 75.57-12.4Q76.12-12.4 76.25-12.6 76.37-12.8 76.37-13.4L76.37-13.4 76.37-25.4Q76.37-25.83 76.2-25.99 76.02-26.15 75.6-26.15L75.6-26.15 74.77-26.15Q74.4-26.15 74.27-26 74.15-25.85 74.1-25.35L74.1-25.35Q73.92-23.15 72.52-21.78 71.12-20.4 68.12-20.4L68.12-20.4 64.72-20.4Q64.12-20.4 64-20.68 63.87-20.95 63.87-21.5L63.87-21.5 63.87-33.65Q63.87-34.38 64.09-34.56 64.3-34.75 64.97-34.75L64.97-34.75 75.87-34.75Q78.67-34.75 80.27-34.01 81.87-33.27 82.59-31.51 83.3-29.75 83.37-26.7L83.37-26.7Q83.4-26.23 83.51-25.99 83.62-25.75 84.17-25.75L84.17-25.75 85.17-25.75Q85.82-25.75 85.85-25.95 85.87-26.15 85.87-26.75L85.87-26.75 85.87-36.3Q85.87-37.18 85.64-37.34 85.4-37.5 84.52-37.5L84.52-37.5 54.47-37.5Q53.92-37.5 53.77-37.31 53.62-37.13 53.62-36.55L53.62-36.55 53.62-35.8Q53.62-35.23 53.76-34.99 53.9-34.75 54.52-34.75L54.52-34.75ZM102.12-3.85L102.12-33.85Q102.12-34.48 102.3-34.61 102.47-34.75 103.07-34.75L103.07-34.75 107.07-34.75Q107.55-34.75 107.83-34.95 108.12-35.15 108.12-35.8L108.12-35.8 108.12-36.65Q108.12-37.23 107.96-37.36 107.8-37.5 107.22-37.5L107.22-37.5 92.62-37.5Q92.2-37.5 92.03-37.43 91.87-37.35 91.87-36.85L91.87-36.85 91.87-35.5Q91.87-35.1 92.06-34.93 92.25-34.75 92.72-34.75L92.72-34.75 96.62-34.75Q97.2-34.75 97.28-34.58 97.37-34.4 97.37-33.9L97.37-33.9 97.37-4Q97.37-3.15 96.84-2.95 96.32-2.75 95.67-2.75L95.67-2.75 93.02-2.75Q92.32-2.75 92.09-2.6 91.87-2.45 91.87-2.05L91.87-2.05 91.87-0.8Q91.87-0.33 92.11-0.16 92.34 0 92.87 0L92.87 0 107.12 0Q107.65 0 107.88-0.18 108.12-0.35 108.12-0.8L108.12-0.8 108.12-1.95Q108.12-2.3 108.02-2.53 107.92-2.75 107.57-2.75L107.57-2.75 103.07-2.75Q102.52-2.75 102.32-2.99 102.12-3.23 102.12-3.85L102.12-3.85Z" opacity="1" transform="matrix(1,0,0,1,0,0)" fill="black" class="wordmark-text-0" id="SvgjsPath3273"></path></svg></g></svg></g></svg></g></svg></g><g></g></svg></g></svg></g><g><path d="M52.156 61.734A29.504 29.504 0 0 1 102.344 61.734L100.443 61.734A27.603 27.603 0 0 0 54.057 61.734L52.156 61.734M52.156 92.766A29.504 29.504 0 0 0 102.344 92.766L100.443 92.766A27.603 27.603 0 0 1 54.057 92.766L52.156 92.766" fill="black" stroke="transparent"></path></g></svg></g><defs><mask></mask></defs></svg><rect width="154.5" height="154.5" fill="black" stroke="none" visibility="hidden"></rect></g></mask></svg><rect width="154.5" height="154.5" fill="black" stroke="none" visibility="hidden"></rect></g></mask><linearGradient x1="0.054" x2="0.941" y1="0.5" y2="0.5" id="6234b02c-e2cc-4fe2-87c9-9dfc6e33b267"><stop stop-color="#864d25" offset="0"></stop><stop stop-color="#f1c4b3" offset="0.498"></stop><stop stop-color="#864d25" offset="1"></stop></linearGradient></svg><rect width="154.5" height="154.5" fill="none" stroke="none" visibility="hidden"></rect></g></svg></g></svg>